<svg width="105" height="20" viewBox="0 0 105 20" fill="none" xmlns="http://www.w3.org/2000/svg">
<rect x="8.22852" y="16.4571" width="87.7714" height="2.74286" fill="#BA9C10"/>
<rect x="8.22852" width="87.7714" height="2.74286" fill="#BA9C10"/>
<rect x="96" y="13.7143" width="2.74286" height="2.74286" fill="#BA9C10"/>
<rect width="2.74286" height="2.74286" transform="matrix(-1 0 0 1 8.22852 13.7143)" fill="#BA9C10"/>
<rect x="98.7427" y="10.9714" width="2.74286" height="2.74286" fill="#BA9C10"/>
<rect x="101.486" y="8.22856" width="2.74286" height="2.74286" fill="#BA9C10"/>
<rect width="2.74286" height="2.74286" transform="matrix(-1 0 0 1 5.48584 10.9714)" fill="#BA9C10"/>
<rect width="2.74286" height="2.74286" transform="matrix(-1 0 0 1 2.74268 8.22856)" fill="#BA9C10"/>
<rect x="98.7427" y="5.48569" width="2.74286" height="2.74286" fill="#BA9C10"/>
<rect width="2.74286" height="2.74286" transform="matrix(-1 0 0 1 5.48584 5.48569)" fill="#BA9C10"/>
<rect x="96" y="2.74287" width="2.74286" height="2.74286" fill="#BA9C10"/>
<rect width="2.74286" height="2.74286" transform="matrix(-1 0 0 1 8.22852 2.74287)" fill="#BA9C10"/>
<rect x="8.22803" y="2.74284" width="87.7714" height="13.7143" fill="#CDAC12"/>
<rect x="41.1426" y="2.74283" width="2.74286" height="2.74286" fill="white" fill-opacity="0.24"/>
<rect x="43.8853" y="2.74283" width="2.74286" height="2.74286" fill="white" fill-opacity="0.24"/>
<rect x="38.3994" y="5.48564" width="2.74286" height="2.74286" fill="white" fill-opacity="0.24"/>
<rect x="41.1426" y="5.48564" width="2.74286" height="2.74286" fill="white" fill-opacity="0.24"/>
<rect x="35.6567" y="8.22852" width="2.74286" height="2.74286" fill="white" fill-opacity="0.24"/>
<rect x="38.3994" y="8.22852" width="2.74286" height="2.74286" fill="white" fill-opacity="0.24"/>
<rect x="32.9141" y="10.9714" width="2.74286" height="2.74286" fill="white" fill-opacity="0.24"/>
<rect x="35.6567" y="10.9714" width="2.74286" height="2.74286" fill="white" fill-opacity="0.24"/>
<rect x="30.1709" y="13.7142" width="2.74286" height="2.74286" fill="white" fill-opacity="0.24"/>
<rect x="32.9141" y="13.7142" width="2.74286" height="2.74286" fill="white" fill-opacity="0.24"/>
<rect x="76.7998" y="2.74283" width="2.74286" height="2.74286" fill="white" fill-opacity="0.24"/>
<rect x="79.5425" y="2.74283" width="2.74286" height="2.74286" fill="white" fill-opacity="0.24"/>
<rect x="74.0566" y="5.48566" width="2.74286" height="2.74286" fill="white" fill-opacity="0.24"/>
<rect x="76.7998" y="5.48566" width="2.74286" height="2.74286" fill="white" fill-opacity="0.24"/>
<rect x="71.314" y="8.22852" width="2.74286" height="2.74286" fill="white" fill-opacity="0.24"/>
<rect x="74.0566" y="8.22852" width="2.74286" height="2.74286" fill="white" fill-opacity="0.24"/>
<rect x="68.5713" y="10.9714" width="2.74286" height="2.74286" fill="white" fill-opacity="0.24"/>
<rect x="71.314" y="10.9714" width="2.74286" height="2.74286" fill="white" fill-opacity="0.24"/>
<rect x="68.5713" y="13.7142" width="2.74286" height="2.74286" fill="white" fill-opacity="0.24"/>
<rect x="65.8281" y="13.7142" width="2.74286" height="2.74286" fill="white" fill-opacity="0.24"/>
<rect x="90.5137" y="2.74283" width="2.74286" height="2.74286" fill="white" fill-opacity="0.16"/>
<rect x="93.2568" y="2.74283" width="2.74286" height="2.74286" fill="white" fill-opacity="0.16"/>
<rect x="87.771" y="5.48566" width="2.74286" height="2.74286" fill="white" fill-opacity="0.16"/>
<rect x="90.5137" y="5.48566" width="2.74286" height="2.74286" fill="white" fill-opacity="0.16"/>
<rect x="85.0278" y="8.22852" width="2.74286" height="2.74286" fill="white" fill-opacity="0.16"/>
<rect x="87.771" y="8.22852" width="2.74286" height="2.74286" fill="white" fill-opacity="0.16"/>
<rect x="82.2852" y="10.9714" width="2.74286" height="2.74286" fill="white" fill-opacity="0.16"/>
<rect x="85.0278" y="10.9714" width="2.74286" height="2.74286" fill="white" fill-opacity="0.16"/>
<rect x="82.2852" y="13.7142" width="2.74286" height="2.74286" fill="white" fill-opacity="0.16"/>
<rect x="79.5425" y="13.7142" width="2.74286" height="2.74286" fill="white" fill-opacity="0.16"/>
<rect x="54.8564" y="2.74283" width="2.74286" height="2.74286" fill="white" fill-opacity="0.16"/>
<rect x="57.5996" y="2.74283" width="2.74286" height="2.74286" fill="white" fill-opacity="0.16"/>
<rect x="52.1138" y="5.48564" width="2.74286" height="2.74286" fill="white" fill-opacity="0.16"/>
<rect x="54.8564" y="5.48564" width="2.74286" height="2.74286" fill="white" fill-opacity="0.16"/>
<rect x="49.3711" y="8.22852" width="2.74286" height="2.74286" fill="white" fill-opacity="0.16"/>
<rect x="52.1138" y="8.22852" width="2.74286" height="2.74286" fill="white" fill-opacity="0.16"/>
<rect x="46.6279" y="10.9714" width="2.74286" height="2.74286" fill="white" fill-opacity="0.16"/>
<rect x="49.3711" y="10.9714" width="2.74286" height="2.74286" fill="white" fill-opacity="0.16"/>
<rect x="43.8853" y="13.7142" width="2.74286" height="2.74286" fill="white" fill-opacity="0.16"/>
<rect x="46.6279" y="13.7142" width="2.74286" height="2.74286" fill="white" fill-opacity="0.16"/>
<rect x="19.1997" y="2.74281" width="2.74286" height="2.74286" fill="white" fill-opacity="0.16"/>
<rect x="21.9429" y="2.74281" width="2.74286" height="2.74286" fill="white" fill-opacity="0.16"/>
<rect x="24.6855" y="2.74281" width="2.74286" height="2.74286" fill="white" fill-opacity="0.16"/>
<rect x="27.4287" y="2.74281" width="2.74286" height="2.74286" fill="white" fill-opacity="0.16"/>
<rect x="16.457" y="5.48564" width="2.74286" height="2.74286" fill="white" fill-opacity="0.16"/>
<rect x="19.1997" y="5.48564" width="2.74286" height="2.74286" fill="white" fill-opacity="0.16"/>
<rect x="21.9429" y="5.48564" width="2.74286" height="2.74286" fill="white" fill-opacity="0.16"/>
<rect x="24.6855" y="5.48564" width="2.74286" height="2.74286" fill="white" fill-opacity="0.16"/>
<rect x="13.7144" y="8.2285" width="2.74286" height="2.74286" fill="white" fill-opacity="0.16"/>
<rect x="16.457" y="8.2285" width="2.74286" height="2.74286" fill="white" fill-opacity="0.16"/>
<rect x="19.1997" y="8.2285" width="2.74286" height="2.74286" fill="white" fill-opacity="0.16"/>
<rect x="21.9429" y="8.2285" width="2.74286" height="2.74286" fill="white" fill-opacity="0.16"/>
<rect x="10.9712" y="10.9714" width="2.74286" height="2.74286" fill="white" fill-opacity="0.16"/>
<rect x="13.7144" y="10.9714" width="2.74286" height="2.74286" fill="white" fill-opacity="0.16"/>
<rect x="16.457" y="10.9714" width="2.74286" height="2.74286" fill="white" fill-opacity="0.16"/>
<rect x="19.1997" y="10.9714" width="2.74286" height="2.74286" fill="white" fill-opacity="0.16"/>
<rect x="8.22852" y="13.7142" width="2.74286" height="2.74286" fill="white" fill-opacity="0.16"/>
<rect x="10.9712" y="13.7142" width="2.74286" height="2.74286" fill="white" fill-opacity="0.16"/>
<rect x="13.7144" y="13.7142" width="2.74286" height="2.74286" fill="white" fill-opacity="0.16"/>
<rect x="16.457" y="13.7142" width="2.74286" height="2.74286" fill="white" fill-opacity="0.16"/>
<rect x="95.9995" y="5.48567" width="2.74286" height="8.22" fill="#CDAC12"/>
<rect x="98.7427" y="8.22855" width="2.74286" height="2.74286" fill="#CDAC12"/>
<rect x="8.22803" y="10.9714" width="2.74286" height="2.74286" transform="rotate(-180 8.22803 10.9714)" fill="#CDAC12"/>
<rect x="8.22803" y="13.7142" width="2.74286" height="8.22" transform="rotate(-180 8.22803 13.7142)" fill="#CDAC12"/>
<rect x="95.9995" y="8.22855" width="2.74286" height="2.74286" fill="#CDAC12"/>
<rect x="95.9995" y="10.9714" width="2.74286" height="2.74286" fill="#CDAC12"/>
<rect x="8.22803" y="8.22855" width="2.74286" height="2.74286" transform="rotate(-180 8.22803 8.22855)" fill="#CDAC12"/>
<rect x="5.48584" y="10.9714" width="2.74286" height="2.74286" transform="rotate(-180 5.48584 10.9714)" fill="#CDAC12"/>
<g filter="url(#filter0_d)">
<path d="M18.6856 12.4857V7.48567H19.6856V6.48567H20.6856V5.48567H23.6856V6.48567H24.6856V7.48567H25.6856V12.4857H23.6856V10.4857H20.6856V12.4857H18.6856ZM20.6856 9.48567H23.6856V7.48567H22.6856V6.48567H21.6856V7.48567H20.6856V9.48567ZM30.4856 8.48567H31.4856V9.48567H30.4856V12.4857H28.4856V7.48567H30.4856V8.48567ZM34.4856 7.48567V8.48567H31.4856V7.48567H34.4856ZM39.2856 12.4857V8.48567H37.2856V7.48567H39.2856V5.48567H41.2856V7.48567H43.2856V8.48567H41.2856V12.4857H39.2856ZM48.0856 6.48567V5.48567H50.0856V6.48567H48.0856ZM46.0856 12.4857V11.4857H48.0856V8.48567H47.0856V7.48567H50.0856V11.4857H52.0856V12.4857H46.0856ZM56.8856 12.4857V8.48567H54.8856V7.48567H56.8856V6.48567H57.8856V5.48567H60.8856V6.48567H58.8856V7.48567H60.8856V8.48567H58.8856V12.4857H56.8856ZM63.6856 12.4857V11.4857H62.6856V10.4857H63.6856V9.48567H67.6856V8.48567H63.6856V7.48567H68.6856V8.48567H69.6856V12.4857H63.6856ZM64.6856 11.4857H67.6856V10.4857H64.6856V11.4857ZM72.4856 12.4857V11.4857H71.4856V8.48567H72.4856V7.48567H78.4856V8.48567H73.4856V11.4857H78.4856V12.4857H72.4856ZM83.2856 12.4857V8.48567H81.2856V7.48567H83.2856V5.48567H85.2856V7.48567H87.2856V8.48567H85.2856V12.4857H83.2856Z" fill="white"/>
</g>
<defs>
<filter id="filter0_d" x="17.0855" y="5.48567" width="70.2" height="7" filterUnits="userSpaceOnUse" color-interpolation-filters="sRGB">
<feFlood flood-opacity="0" result="BackgroundImageFix"/>
<feColorMatrix in="SourceAlpha" type="matrix" values="0 0 0 0 0 0 0 0 0 0 0 0 0 0 0 0 0 0 127 0" result="hardAlpha"/>
<feOffset dx="-1.6"/>
<feColorMatrix type="matrix" values="0 0 0 0 0 0 0 0 0 0 0 0 0 0 0 0 0 0 0.48 0"/>
<feBlend mode="normal" in2="BackgroundImageFix" result="effect1_dropShadow"/>
<feBlend mode="normal" in="SourceGraphic" in2="effect1_dropShadow" result="shape"/>
</filter>
</defs>
</svg>
