<svg width="40" height="40" viewBox="0 0 40 40" fill="none" xmlns="http://www.w3.org/2000/svg">
<circle cx="20" cy="20" r="20" fill="#5865F2"/>
<g clip-path="url(#clip0)">
<path d="M27.7774 13.4487C26.4389 12.8345 25.0036 12.3821 23.5029 12.1229C23.4756 12.1179 23.4483 12.1304 23.4342 12.1554C23.2496 12.4837 23.0451 12.912 22.902 13.2487C21.2879 13.007 19.682 13.007 18.101 13.2487C17.9578 12.9046 17.7459 12.4837 17.5605 12.1554C17.5464 12.1312 17.5191 12.1187 17.4918 12.1229C15.9919 12.3812 14.5566 12.8337 13.2173 13.4487C13.2057 13.4537 13.1958 13.462 13.1892 13.4729C10.4667 17.5402 9.72092 21.5075 10.0868 25.4257C10.0884 25.4448 10.0992 25.4632 10.1141 25.4748C11.9103 26.7939 13.6502 27.5947 15.3579 28.1255C15.3852 28.1339 15.4142 28.1239 15.4315 28.1014C15.8355 27.5497 16.1956 26.9681 16.5043 26.3564C16.5225 26.3206 16.5051 26.2781 16.4679 26.264C15.8967 26.0473 15.3529 25.7831 14.8298 25.4832C14.7884 25.459 14.7851 25.3998 14.8231 25.3715C14.9332 25.289 15.0433 25.2032 15.1485 25.1165C15.1675 25.1007 15.194 25.0973 15.2163 25.1073C18.6531 26.6764 22.3739 26.6764 25.7701 25.1073C25.7924 25.0965 25.8189 25.0998 25.8388 25.1157C25.9439 25.2023 26.054 25.289 26.1649 25.3715C26.203 25.3998 26.2005 25.459 26.1591 25.4832C25.636 25.789 25.0922 26.0473 24.5202 26.2631C24.483 26.2773 24.4664 26.3206 24.4846 26.3564C24.8 26.9672 25.16 27.5489 25.5565 28.1005C25.5731 28.1239 25.6029 28.1339 25.6302 28.1255C27.3461 27.5947 29.086 26.7939 30.8823 25.4748C30.898 25.4632 30.9079 25.4457 30.9096 25.4265C31.3474 20.8967 30.1762 16.9619 27.8047 13.4737C27.7989 13.462 27.789 13.4537 27.7774 13.4487ZM17.0175 23.0399C15.9828 23.0399 15.1302 22.09 15.1302 20.9234C15.1302 19.7567 15.9663 18.8068 17.0175 18.8068C18.077 18.8068 18.9213 19.7651 18.9048 20.9234C18.9048 22.09 18.0687 23.0399 17.0175 23.0399ZM23.9954 23.0399C22.9607 23.0399 22.1082 22.09 22.1082 20.9234C22.1082 19.7567 22.9442 18.8068 23.9954 18.8068C25.0549 18.8068 25.8992 19.7651 25.8827 20.9234C25.8827 22.09 25.0549 23.0399 23.9954 23.0399Z" fill="white"/>
</g>
<defs>
<clipPath id="clip0">
<rect width="21" height="16.2676" fill="white" transform="translate(10 12)"/>
</clipPath>
</defs>
</svg>
