<svg width="110" height="20" viewBox="0 0 110 20" fill="none" xmlns="http://www.w3.org/2000/svg">
<rect x="8.22852" y="2.74284" width="93.2572" height="13.7143" fill="#D66600"/>
<rect x="8.22852" y="1.52588e-05" width="93.2572" height="2.74286" fill="#C25D00"/>
<rect x="8.22852" y="16.4572" width="93.2572" height="2.74286" fill="#C25D00"/>
<rect x="101.486" y="13.7144" width="2.74286" height="2.74286" fill="#C25D00"/>
<rect width="2.74286" height="2.74286" transform="matrix(-1 0 0 1 8.22852 13.7144)" fill="#C25D00"/>
<rect x="104.229" y="10.9715" width="2.74286" height="2.74286" fill="#C25D00"/>
<rect width="2.74286" height="2.74286" transform="matrix(-1 0 0 1 5.48584 10.9715)" fill="#C25D00"/>
<rect x="106.971" y="8.22865" width="2.74286" height="2.74286" fill="#C25D00"/>
<rect width="2.74286" height="2.74286" transform="matrix(-1 0 0 1 2.74268 8.22865)" fill="#C25D00"/>
<rect x="104.229" y="5.48572" width="2.74286" height="2.74286" fill="#C25D00"/>
<rect width="2.74286" height="2.74286" transform="matrix(-1 0 0 1 5.48584 5.48572)" fill="#C25D00"/>
<rect x="101.486" y="2.74284" width="2.74286" height="2.74286" fill="#C25D00"/>
<rect width="2.74286" height="2.74286" transform="matrix(-1 0 0 1 8.22852 2.74284)" fill="#C25D00"/>
<rect x="101.486" y="5.48572" width="2.74286" height="8.22" fill="#D66600"/>
<rect x="104.229" y="8.22865" width="2.74286" height="2.74286" fill="#D66600"/>
<rect x="8.22852" y="10.9715" width="2.74286" height="2.74286" transform="rotate(-180 8.22852 10.9715)" fill="#D66600"/>
<rect x="8.22852" y="13.7144" width="2.74286" height="8.22" transform="rotate(-180 8.22852 13.7144)" fill="#D66600"/>
<rect x="101.486" y="8.22865" width="2.74286" height="2.74286" fill="#D66600"/>
<rect x="101.486" y="10.9715" width="2.74286" height="2.74286" fill="#D66600"/>
<rect x="8.22852" y="8.22865" width="2.74286" height="2.74286" transform="rotate(-180 8.22852 8.22865)" fill="#D66600"/>
<rect x="5.48584" y="10.9715" width="2.74286" height="2.74286" transform="rotate(-180 5.48584 10.9715)" fill="#D66600"/>
<g filter="url(#filter0_d)">
<path d="M16.6572 12.4857V5.48571H18.6572V11.4857H22.6572V12.4857H16.6572ZM25.4572 12.4857V11.4857H24.4572V8.48572H25.4572V7.48572H30.4572V8.48572H31.4572V10.4857H26.4572V11.4857H30.4572V12.4857H25.4572ZM26.4572 9.48572H29.4572V8.48572H26.4572V9.48572ZM34.2572 13.4857V12.4857H38.2572V11.4857H34.2572V10.4857H33.2572V8.48572H34.2572V7.48572H40.2572V12.4857H39.2572V13.4857H34.2572ZM35.2572 10.4857H38.2572V8.48572H35.2572V10.4857ZM43.0572 12.4857V11.4857H42.0572V8.48572H43.0572V7.48572H48.0572V8.48572H49.0572V10.4857H44.0572V11.4857H48.0572V12.4857H43.0572ZM44.0572 9.48572H47.0572V8.48572H44.0572V9.48572ZM50.8572 12.4857V7.48572H56.8572V8.48572H57.8572V12.4857H55.8572V8.48572H52.8572V12.4857H50.8572ZM60.6572 12.4857V11.4857H59.6572V8.48572H60.6572V7.48572H64.6572V5.48571H66.6572V12.4857H60.6572ZM61.6572 11.4857H64.6572V8.48572H61.6572V11.4857ZM69.4572 12.4857V11.4857H68.4572V10.4857H69.4572V9.48572H73.4572V8.48572H69.4572V7.48572H74.4572V8.48572H75.4572V12.4857H69.4572ZM70.4572 11.4857H73.4572V10.4857H70.4572V11.4857ZM80.2572 8.48572H81.2572V9.48572H80.2572V12.4857H78.2572V7.48572H80.2572V8.48572ZM84.2572 7.48572V8.48572H81.2572V7.48572H84.2572ZM87.0572 13.4857V12.4857H91.0572V11.4857H87.0572V10.4857H86.0572V7.48572H88.0572V10.4857H91.0572V7.48572H93.0572V12.4857H92.0572V13.4857H87.0572Z" fill="white"/>
</g>
<defs>
<filter id="filter0_d" x="15.0572" y="5.48572" width="78" height="8" filterUnits="userSpaceOnUse" color-interpolation-filters="sRGB">
<feFlood flood-opacity="0" result="BackgroundImageFix"/>
<feColorMatrix in="SourceAlpha" type="matrix" values="0 0 0 0 0 0 0 0 0 0 0 0 0 0 0 0 0 0 127 0" result="hardAlpha"/>
<feOffset dx="-1.6"/>
<feColorMatrix type="matrix" values="0 0 0 0 0 0 0 0 0 0 0 0 0 0 0 0 0 0 0.48 0"/>
<feBlend mode="normal" in2="BackgroundImageFix" result="effect1_dropShadow"/>
<feBlend mode="normal" in="SourceGraphic" in2="effect1_dropShadow" result="shape"/>
</filter>
</defs>
</svg>
