<svg width="61" height="16" viewBox="0 0 61 16" fill="none" xmlns="http://www.w3.org/2000/svg">
<rect x="3.2002" y="-6.10352e-05" width="54.4" height="16" fill="#275FB4"/>
<rect x="57.6001" y="3.19989" width="3.2" height="9.6" fill="#275FB4"/>
<rect x="3.2002" y="9.60001" width="3.2" height="3.2" transform="rotate(-180 3.2002 9.60001)" fill="#275FB4"/>
<rect x="3.2002" y="12.7999" width="3.2" height="9.6" transform="rotate(-180 3.2002 12.7999)" fill="#275FB4"/>
<rect x="57.6001" y="6.39992" width="3.2" height="3.2" fill="#275FB4"/>
<rect x="57.6001" y="9.60001" width="3.2" height="3.2" fill="#275FB4"/>
<rect x="3.2002" y="6.39992" width="3.2" height="3.2" transform="rotate(-180 3.2002 6.39992)" fill="#275FB4"/>
<g filter="url(#filter0_d)">
<path d="M11.2885 11.0888V3.311H17.9552V4.42211H19.0663V7.75545H16.844V8.86656H17.9552V9.97767H19.0663V11.0888H15.7329V9.97767H14.6218V8.86656H13.5107V11.0888H11.2885ZM13.5107 7.75545H15.7329V6.64433H16.844V4.42211H13.5107V7.75545ZM22.1774 11.0888V9.97767H21.0663V8.86656H22.1774V7.75545H26.6218V6.64433H22.1774V5.53322H27.7329V6.64433H28.8441V11.0888H22.1774ZM23.2885 9.97767H26.6218V8.86656H23.2885V9.97767ZM34.1774 6.64433H35.2885V7.75545H34.1774V11.0888H31.9552V5.53322H34.1774V6.64433ZM38.6218 5.53322V6.64433H35.2885V5.53322H38.6218ZM41.7329 11.0888V9.97767H40.6218V6.64433H41.7329V5.53322H47.2885V6.64433H48.3996V8.86656H42.8441V9.97767H47.2885V11.0888H41.7329ZM42.8441 7.75545H46.1774V6.64433H42.8441V7.75545Z" fill="white"/>
</g>
<defs>
<filter id="filter0_d" x="9.5108" y="3.311" width="38.8889" height="7.77778" filterUnits="userSpaceOnUse" color-interpolation-filters="sRGB">
<feFlood flood-opacity="0" result="BackgroundImageFix"/>
<feColorMatrix in="SourceAlpha" type="matrix" values="0 0 0 0 0 0 0 0 0 0 0 0 0 0 0 0 0 0 127 0" result="hardAlpha"/>
<feOffset dx="-1.77778"/>
<feColorMatrix type="matrix" values="0 0 0 0 0 0 0 0 0 0 0 0 0 0 0 0 0 0 0.48 0"/>
<feBlend mode="normal" in2="BackgroundImageFix" result="effect1_dropShadow"/>
<feBlend mode="normal" in="SourceGraphic" in2="effect1_dropShadow" result="shape"/>
</filter>
</defs>
</svg>
