<svg width="32" height="32" viewBox="0 0 32 32" fill="none" xmlns="http://www.w3.org/2000/svg">
<mask id="mask0" mask-type="alpha" maskUnits="userSpaceOnUse" x="0" y="0" width="32" height="32">
<circle cx="16" cy="16" r="16" fill="#D3CED4"/>
</mask>
<g mask="url(#mask0)">
<path d="M32 0H0V32H32V0Z" fill="#0075FF"/>
<path d="M15.8462 17.6461C13.3129 16.9179 11.4667 16.0256 10.3077 14.9692C9.15902 13.9025 8.58465 12.5897 8.58465 11.0307C8.58465 9.26662 9.28722 7.81022 10.6924 6.66147C12.1077 5.50253 13.9436 4.92303 16.2 4.92303C17.7385 4.92303 19.1077 5.22049 20.3077 5.81534C21.518 6.4102 22.4513 7.23073 23.1077 8.27688C23.7744 9.32303 24.1077 10.4666 24.1077 11.7076H21.1385C21.1385 10.3538 20.7077 9.29227 19.8462 8.52303C18.9846 7.74356 17.7693 7.3538 16.2 7.3538C14.7436 7.3538 13.6051 7.67691 12.7847 8.32301C11.9744 8.95892 11.5693 9.84611 11.5693 10.9846C11.5693 11.8974 11.9539 12.6718 12.7231 13.3076C13.5026 13.9333 14.8206 14.5077 16.677 15.0307C18.5436 15.5538 20 16.1333 21.0462 16.7692C22.1026 17.3948 22.8821 18.1282 23.3846 18.9692C23.8975 19.8102 24.1539 20.8 24.1539 21.9384C24.1539 23.7538 23.4462 25.2102 22.0308 26.3076C20.6154 27.3948 18.7231 27.9384 16.3539 27.9384C14.8154 27.9384 13.3795 27.6461 12.0462 27.0615C10.7128 26.4666 9.6821 25.6564 8.95388 24.6307C8.23594 23.6051 7.87695 22.441 7.87695 21.1384H10.8462C10.8462 22.4923 11.3436 23.5641 12.3385 24.3538C13.3436 25.1333 14.6821 25.5231 16.3539 25.5231C17.9128 25.5231 19.1077 25.2051 19.9385 24.5692C20.7693 23.9333 21.1846 23.0666 21.1846 21.9692C21.1846 20.8717 20.8 20.0256 20.0308 19.4308C19.2616 18.8256 17.8667 18.2307 15.8462 17.6461Z" fill="white"/>
</g>
</svg>
