<svg width="40" height="40" viewBox="0 0 40 40" fill="none" xmlns="http://www.w3.org/2000/svg">
<circle cx="20" cy="20" r="20" fill="#1DA1F2"/>
<path d="M32 14.1166C31.1906 14.4759 30.3207 14.7179 29.4077 14.827C30.3399 14.2687 31.0558 13.3842 31.3923 12.33C30.5205 12.847 29.5543 13.2228 28.5258 13.4254C27.7036 12.5482 26.5293 12 25.2313 12C22.3172 12 20.1759 14.7188 20.8341 17.5412C17.084 17.3533 13.7583 15.5567 11.5318 12.8259C10.3493 14.8545 10.9185 17.5082 12.9278 18.8521C12.189 18.8282 11.4923 18.6257 10.8846 18.2874C10.8351 20.3783 12.3338 22.3345 14.5045 22.7699C13.8693 22.9422 13.1735 22.9826 12.4658 22.8469C13.0397 24.6399 14.7062 25.9443 16.6825 25.981C14.785 27.4687 12.3943 28.1333 10 27.851C11.9974 29.1316 14.3707 29.8787 16.919 29.8787C25.2992 29.8787 30.0338 22.8011 29.7477 16.4532C30.6296 15.8161 31.395 15.0213 32 14.1166Z" fill="white"/>
</svg>
