<svg width="24" height="24" viewBox="0 0 24 24" fill="none" xmlns="http://www.w3.org/2000/svg">
<path opacity="0.3" d="M13 17C11.9 17 11 16.1 11 15V9C11 7.9 11.9 7 13 7L19 7V5L5 5L5 19H19V17H13Z" fill="white"/>
<path d="M21 7.28V5C21 3.9 20.1 3 19 3L5 3C3.89 3 3 3.9 3 5L3 19C3 20.1 3.89 21 5 21L19 21C20.1 21 21 20.1 21 19L21 16.72C21.59 16.37 22 15.74 22 15V9C22 8.26 21.59 7.62 21 7.28ZM20 9V15H13L13 9L20 9ZM5 19L5 5L19 5V7H13C11.9 7 11 7.9 11 9L11 15C11 16.1 11.9 17 13 17H19L19 19H5Z" fill="white"/>
<path d="M16 13.5C16.8284 13.5 17.5 12.8284 17.5 12C17.5 11.1716 16.8284 10.5 16 10.5C15.1716 10.5 14.5 11.1716 14.5 12C14.5 12.8284 15.1716 13.5 16 13.5Z" fill="white"/>
</svg>
